ffmpeg started on 2025-06-30 at 14:47:15
Report written to "D:\Convert\FFMetrics\reports\psnr_report-6.txt"
Log level: 32
Command line:
ffmpeg -hide_banner -nostdin -i "G:\\\xc0\xed\xe8\xec\xe5\\\xce\xed\xe3\xee\xe8\xed\xe3\xe8\\!_37_\xc7\xe8\xec\xe0_2025\\JamClub\\\xc3\xee\xf1\xef\xee\xe4\xe8\xed \xe8 \xef\xb8\xf1\\JamClub_Tono_to_Inu_Woof_Woof!_S01E21_1080p_HEVC.mkv" -i "G:\\\xc0\xed\xe8\xec\xe5\\\xce\xed\xe3\xee\xe8\xed\xe3\xe8\\!_37_\xc7\xe8\xec\xe0_2025\\JamClub\\\xc3\xee\xf1\xef\xee\xe4\xe8\xed \xe8 \xef\xb8\xf1\\JamClub_Tono_to_Inu_Woof_Woof!_S01E21_1080p.mp4" -lavfi "[0:v]settb=AVTB,setpts=PTS-STARTPTS,format=pix_fmts=yuv420p10,fps=24000/1001,scale=1920:1080:flags=bicubic[main];[1:v]settb=AVTB,setpts=PTS-STARTPTS,format=pix_fmts=yuv420p,fps=24000/1001,scale=1920:1080:flags=bicubic[ref];[main][ref]psnr=eof_action=endall:stats_file='D\\:/Convert/FFMetrics/logs/psnr_logfile-6.txt'" -f null -
Input #0, matroska,webm, from 'G:\Аниме\Онгоинги\!_37_Зима_2025\JamClub\Господин и пёс\JamClub_Tono_to_Inu_Woof_Woof!_S01E21_1080p_HEVC.mkv':
  Metadata:
    COMPATIBLE_BRANDS: isomiso2avc1mp41
    MAJOR_BRAND     : isom
    MINOR_VERSION   : 512
    ENCODER         : Lavf61.7.100
  Duration: 00:02:56.30, start: -0.021000, bitrate: 1746 kb/s
  Stream #0:0: Video: hevc (Main 10), yuv420p10le(tv, bt709, progressive), 1920x1080 [SAR 1:1 DAR 16:9], 23.98 fps, 23.98 tbr, 1k tbn (default)
      Metadata:
        HANDLER_NAME    : VideoHandler
        VENDOR_ID       : [0][0][0][0]
        ENCODER         : Lavc61.19.100 libx265
        BPS             : 1558135
        DURATION        : 00:02:55.174708333
        NUMBER_OF_FRAMES: 4200
        NUMBER_OF_BYTES : 34118111
        _STATISTICS_WRITING_APP: mkvpropedit v66.0.0 ('Josie') 64-bit
        _STATISTICS_WRITING_DATE_UTC: 2025-06-30 08:10:56
        _STATISTICS_TAGS: BPS DURATION NUMBER_OF_FRAMES NUMBER_OF_BYTES
  Stream #0:1(eng): Audio: aac (LC), 48000 Hz, stereo, fltp (default)
      Metadata:
        HANDLER_NAME    : SoundHandler
        VENDOR_ID       : [0][0][0][0]
        ENCODER         : Lavc61.19.100 aac
        BPS             : 193998
        DURATION        : 00:02:56.280000000
        NUMBER_OF_FRAMES: 8264
        NUMBER_OF_BYTES : 4274761
        _STATISTICS_WRITING_APP: mkvpropedit v66.0.0 ('Josie') 64-bit
        _STATISTICS_WRITING_DATE_UTC: 2025-06-30 08:10:56
        _STATISTICS_TAGS: BPS DURATION NUMBER_OF_FRAMES NUMBER_OF_BYTES
Input #1, mov,mp4,m4a,3gp,3g2,mj2, from 'G:\Аниме\Онгоинги\!_37_Зима_2025\JamClub\Господин и пёс\JamClub_Tono_to_Inu_Woof_Woof!_S01E21_1080p.mp4':
  Metadata:
    major_brand     : isom
    minor_version   : 512
    compatible_brands: isomiso2avc1mp41
    encoder         : Lavf60.16.100
  Duration: 00:02:56.28, start: 0.000000, bitrate: 3663 kb/s
  Stream #1:0[0x1](und): Video: h264 (High) (avc1 / 0x31637661), yuv420p(tv, bt709, progressive), 1920x1080 [SAR 1:1 DAR 16:9], 3487 kb/s, 23.98 fps, 23.98 tbr, 90k tbn (default)
      Metadata:
        handler_name    : VideoHandler
        vendor_id       : [0][0][0][0]
  Stream #1:1[0x2](eng): Audio: aac (LC) (mp4a / 0x6134706D), 48000 Hz, stereo, fltp, 191 kb/s (default)
      Metadata:
        handler_name    : SoundHandler
        vendor_id       : [0][0][0][0]
Stream mapping:
  Stream #0:0 (hevc) -> settb:default
  Stream #1:0 (h264) -> settb:default
  psnr:default -> Stream #0:0 (wrapped_avframe)
  Stream #0:1 -> #0:1 (aac (native) -> pcm_s16le (native))
Output #0, null, to 'pipe:':
  Metadata:
    COMPATIBLE_BRANDS: isomiso2avc1mp41
    MAJOR_BRAND     : isom
    MINOR_VERSION   : 512
    encoder         : Lavf61.7.100
  Stream #0:0: Video: wrapped_avframe, yuv420p10le(tv, bt709, progressive), 1920x1080 [SAR 1:1 DAR 16:9], q=2-31, 200 kb/s, 23.98 fps, 23.98 tbn
      Metadata:
        encoder         : Lavc61.19.100 wrapped_avframe
  Stream #0:1(eng): Audio: pcm_s16le, 48000 Hz, stereo, s16, 1536 kb/s (default)
      Metadata:
        HANDLER_NAME    : SoundHandler
        VENDOR_ID       : [0][0][0][0]
        _STATISTICS_TAGS: BPS DURATION NUMBER_OF_FRAMES NUMBER_OF_BYTES
        BPS             : 193998
        DURATION        : 00:02:56.280000000
        NUMBER_OF_FRAMES: 8264
        NUMBER_OF_BYTES : 4274761
        _STATISTICS_WRITING_APP: mkvpropedit v66.0.0 ('Josie') 64-bit
        _STATISTICS_WRITING_DATE_UTC: 2025-06-30 08:10:56
        encoder         : Lavc61.19.100 pcm_s16le
frame=  118 fps=0.0 q=-0.0 size=N/A time=00:00:04.92 bitrate=N/A speed=9.45x    frame=  281 fps=273 q=-0.0 size=N/A time=00:00:11.72 bitrate=N/A speed=11.4x    frame=  476 fps=306 q=-0.0 size=N/A time=00:00:19.85 bitrate=N/A speed=12.7x    frame=  710 fps=344 q=-0.0 size=N/A time=00:00:29.61 bitrate=N/A speed=14.3x    frame=  968 fps=376 q=-0.0 size=N/A time=00:00:40.37 bitrate=N/A speed=15.7x    frame= 1221 fps=394 q=-0.0 size=N/A time=00:00:50.92 bitrate=N/A speed=16.4x    frame= 1467 fps=406 q=-0.0 size=N/A time=00:01:01.18 bitrate=N/A speed=16.9x    frame= 1735 fps=420 q=-0.0 size=N/A time=00:01:12.36 bitrate=N/A speed=17.5x    frame= 1975 fps=425 q=-0.0 size=N/A time=00:01:22.37 bitrate=N/A speed=17.7x    frame= 2227 fps=431 q=-0.0 size=N/A time=00:01:32.88 bitrate=N/A speed=  18x    frame= 2479 fps=437 q=-0.0 size=N/A time=00:01:43.39 bitrate=N/A speed=18.2x    frame= 2732 fps=441 q=-0.0 size=N/A time=00:01:53.94 bitrate=N/A speed=18.4x    frame= 2955 fps=440 q=-0.0 size=N/A time=00:02:03.24 bitrate=N/A speed=18.4x    frame= 3104 fps=430 q=-0.0 size=N/A time=00:02:09.46 bitrate=N/A speed=17.9x    frame= 3351 fps=433 q=-0.0 size=N/A time=00:02:19.76 bitrate=N/A speed=18.1x    frame= 3543 fps=429 q=-0.0 size=N/A time=00:02:27.77 bitrate=N/A speed=17.9x    frame= 3741 fps=427 q=-0.0 size=N/A time=00:02:36.03 bitrate=N/A speed=17.8x    frame= 3931 fps=424 q=-0.0 size=N/A time=00:02:43.95 bitrate=N/A speed=17.7x    frame= 4155 fps=424 q=-0.0 size=N/A time=00:02:53.29 bitrate=N/A speed=17.7x    [Parsed_psnr_10 @ 000001a2beaeae40] PSNR y:47.463312 u:49.285203 v:50.340772 average:48.107482 min:37.690439 max:inf
[out#0/null @ 000001a2be260f40] video:1805KiB audio:33056KiB subtitle:0KiB other streams:0KiB global headers:0KiB muxing overhead: unknown
frame= 4200 fps=423 q=-0.0 Lsize=N/A time=00:02:55.17 bitrate=N/A speed=17.6x    
